<svg width="809" height="282" viewBox="0 0 809 282" xmlns="http://www.w3.org/2000/svg">
    <g id="ac881a4c-fa5c-4c95-ba00-bbe942c79cb2">
        <path id="Path" fill="#ffffff" stroke="none" visibility="hidden" d="M 0 0 L 1080 0 L 1080 1080 L 0 1080 Z"/>
    </g>
    <g id="4c5aa3b4-30ff-4011-aa2e-24750feb84c9"/>
    <g id="Group">
        <g id="e0c5668f-28e7-4c95-a947-4573b97059a2">
            <path id="path1" fill="#000000" stroke="none" d="M 278.291473 71.639557 L 274.711212 71.866592 C 250.522842 28.991135 204.538696 0.017487 151.813232 0 C 99.489464 0.069855 53.907005 28.537064 29.596361 70.906036 L 142.487167 70.906067 L 182.987442 141.026199 L 142.469696 211.128876 L 29.578892 211.19873 C 53.924465 253.497864 99.506927 282 151.900558 282 C 206.791611 282.017456 254.382507 250.528885 277.697662 204.719391 L 278.326385 204.719376 L 742.865784 204.701904 C 761.221008 204.684448 777.882202 197.314423 789.932739 185.263885 C 801.983276 173.213333 809.335815 156.569641 809.405701 138.162003 C 809.475525 101.451523 779.698486 71.674484 742.848328 71.604645 L 278.291473 71.639557 Z M 772.276123 159.503677 C 762.391113 169.388596 746.288818 169.388596 736.368958 159.468765 C 726.414185 149.513977 726.449097 133.446564 736.334045 123.56163 C 746.288818 113.606842 762.338745 113.589417 772.293518 123.544205 C 782.230896 133.446564 782.248291 149.531433 772.276123 159.503677 Z"/>
        </g>
        <g id="g1">
            <g id="g2">
                <g id="g3">
                    <path id="path2" fill="#326ce5" stroke="none" d="M 83.756386 59.235947 C 82.259628 59.31134 80.793121 59.682419 79.442894 60.327454 L 20.58123 88.452148 C 17.495186 89.926086 15.253755 92.713531 14.491361 96.025467 L -0.030376 159.200623 C -0.707828 162.141327 -0.156568 165.22876 1.497873 167.759918 C 1.69641 168.066223 1.909939 168.362732 2.137695 168.648346 L 42.879349 219.304108 C 45.015572 221.959335 48.254528 223.505447 51.67955 223.504868 L 117.01532 223.489929 C 120.439018 223.492401 123.67775 221.949234 125.815514 219.296875 L 166.542236 168.633163 C 168.679565 165.976532 169.480286 162.498901 168.717529 159.18544 L 154.173859 96.010284 C 153.411362 92.69838 151.169846 89.911041 148.083771 88.437225 L 89.214386 60.327209 C 87.5159 59.515884 85.63916 59.140625 83.756386 59.235947 Z"/>
                </g>
                <g id="g4">
                    <path id="path3" fill="#ffffff" stroke="#ffffff" stroke-width="0.060224" d="M 84.339844 80.735245 C 82.394119 80.735489 80.81649 82.488007 80.816727 84.649826 C 80.816727 84.683075 80.823471 84.714874 80.823952 84.747635 C 80.821312 85.041519 80.807098 85.395416 80.816727 85.650986 C 80.862984 86.897888 81.134712 87.852325 81.298523 89.001144 C 81.594826 91.459732 81.842949 93.497971 81.68998 95.39238 C 81.540619 96.106628 81.014748 96.759933 80.545723 97.214035 L 80.462852 98.704712 C 78.319588 98.881134 76.191399 99.208084 74.094025 99.683243 C 64.946213 101.760483 57.069851 106.472672 51.073452 112.834747 C 50.645435 112.539246 50.22134 112.238098 49.801281 111.931381 C 49.172054 112.016418 48.536572 112.210587 47.70837 111.728073 C 46.131699 110.666916 44.695713 109.202026 42.958126 107.43721 C 42.161961 106.593124 41.585495 105.789246 40.639496 104.975494 C 40.424854 104.79071 40.096992 104.540909 39.856583 104.350616 C 39.117027 103.761139 38.244984 103.453491 37.402561 103.42485 C 36.319492 103.387726 35.276894 103.811249 34.594673 104.666885 C 33.381516 106.188171 33.76984 108.51355 35.460217 109.861115 C 35.477322 109.874847 35.495625 109.885437 35.51297 109.898926 C 35.745197 110.087082 36.029697 110.328445 36.24313 110.485992 C 37.246944 111.227234 38.163799 111.606659 39.164001 112.194916 C 41.271126 113.496246 43.018108 114.574982 44.403507 115.876068 C 44.944557 116.452774 45.03923 117.469116 45.111259 117.908752 L 46.240345 118.917389 C 40.195522 128.014618 37.397751 139.25148 39.051262 150.700821 L 37.575771 151.129852 C 37.186722 151.632111 36.637234 152.422256 36.062458 152.658096 C 34.24971 153.229034 32.209553 153.438614 29.746628 153.696854 C 28.590322 153.793198 27.592287 153.735641 26.366364 153.967865 C 26.09656 154.018921 25.72076 154.116974 25.425421 154.186127 L 25.395309 154.193817 C 25.379169 154.197433 25.357971 154.205383 25.342552 154.208755 C 23.266022 154.710541 21.932178 156.619171 22.361456 158.499847 C 22.790974 160.380768 24.819326 161.524551 26.908381 161.07431 C 26.923559 161.070938 26.94548 161.070221 26.961138 161.066833 C 26.984747 161.061554 27.005463 161.049988 27.02883 161.044189 C 27.320314 160.980347 27.685032 160.909302 27.939899 160.841125 C 29.145105 160.518311 30.017876 160.04425 31.101671 159.628937 C 33.432587 158.79303 35.363373 158.094421 37.244537 157.822205 C 38.029858 157.760773 38.857822 158.306885 39.269512 158.53743 L 40.805229 158.273895 C 44.339184 169.230591 51.745312 178.086426 61.123421 183.643433 L 60.483364 185.179153 C 60.714142 185.77536 60.968529 186.582138 60.796524 187.171387 C 60.112862 188.944366 58.94162 190.816132 57.607773 192.902786 C 56.961929 193.866852 56.300911 194.615082 55.718185 195.718384 C 55.578705 195.982422 55.401165 196.388092 55.266502 196.666809 C 54.36097 198.604324 55.025124 200.83551 56.764637 201.673111 C 58.514996 202.515533 60.687397 201.626862 61.627625 199.685715 C 61.629063 199.682831 61.633884 199.680878 61.63509 199.678009 C 61.636055 199.675842 61.634129 199.672699 61.63509 199.670776 C 61.769028 199.395432 61.958855 199.03363 62.071835 198.774643 C 62.570969 197.631104 62.737186 196.651154 63.088173 195.545181 C 64.020447 193.203674 64.532349 190.746765 65.815605 189.215866 C 66.167076 188.796707 66.739929 188.6353 67.333977 188.476318 L 68.131836 187.03093 C 76.307381 190.169083 85.458809 191.011276 94.600365 188.935699 C 96.654953 188.468445 98.674789 187.859695 100.645416 187.1138 C 100.869453 187.51152 101.286446 188.276367 101.398224 188.468842 C 102.001915 188.665161 102.660515 188.766602 103.197479 189.560333 C 104.157455 191.200867 104.813896 193.141266 105.613914 195.484955 C 105.964897 196.590912 106.138588 197.571106 106.637726 198.714417 C 106.751427 198.975067 106.940292 199.341949 107.074234 199.617798 C 108.012527 201.565445 110.192154 202.45723 111.945168 201.612885 C 113.684196 200.775055 114.349068 198.543854 113.443062 196.606567 C 113.308395 196.327606 113.12339 195.922195 112.98391 195.658173 C 112.40094 194.554855 111.740158 193.814117 111.094315 192.850281 C 109.760475 190.763626 108.65403 189.030151 107.970123 187.256653 C 107.684181 186.342194 108.018303 185.773453 108.241135 185.179153 C 108.107674 185.026184 107.822212 184.162598 107.654068 183.756409 C 117.400024 178.001648 124.588623 168.815521 127.964546 158.206192 C 128.420563 158.277985 129.212875 158.418182 129.470154 158.469727 C 130.000122 158.120438 130.487228 157.664185 131.442627 157.739563 C 133.323547 158.011536 135.254333 158.710388 137.58548 159.546295 C 138.669052 159.961365 139.541809 160.443161 140.747269 160.765732 C 141.001877 160.833893 141.366837 160.897491 141.658081 160.961563 C 141.681458 160.967102 141.702164 160.978668 141.725769 160.983978 C 141.741684 160.987579 141.763351 160.988068 141.778519 160.991684 C 143.867599 161.441193 145.896439 160.297913 146.325455 158.416977 C 146.754257 156.536301 145.421127 154.627197 143.344345 154.126129 C 143.042267 154.05722 142.613953 153.940628 142.320541 153.885223 C 141.094391 153.653 140.096832 153.710098 138.940536 153.614212 C 136.477356 153.355988 134.43721 153.146164 132.624451 152.575241 C 131.885376 152.288574 131.359512 151.409058 131.103668 151.046982 L 129.680939 150.633133 C 130.418564 145.296051 130.219818 139.741699 128.943314 134.184219 C 127.654762 128.57518 125.378036 123.445038 122.341057 118.925079 C 122.706017 118.59314 123.395462 117.982941 123.590828 117.803238 C 123.647919 117.171127 123.598778 116.508423 124.253288 115.80838 C 125.638695 114.507538 127.385681 113.428558 129.492798 112.127228 C 130.493011 111.538712 131.417572 111.159546 132.421143 110.418304 C 132.648056 110.250641 132.958344 109.985168 133.196579 109.793427 C 134.886475 108.445374 135.275513 106.120239 134.062363 104.599197 C 132.848969 103.078186 130.497833 102.934601 128.807678 104.282913 C 128.567276 104.473465 128.24086 104.722061 128.024765 104.907806 C 127.079018 105.721558 126.49485 106.525177 125.698677 107.369522 C 123.961098 109.134323 122.525108 110.606689 120.948433 111.668091 C 120.265259 112.065567 119.264565 111.928253 118.810486 111.901276 L 117.470612 112.857391 C 109.829369 104.845154 99.426239 99.722504 88.224297 98.727341 C 88.192993 98.257843 88.152039 97.409409 88.141434 97.153809 C 87.68277 96.715149 87.1287 96.340561 86.989708 95.39238 C 86.836258 93.497971 87.092339 91.459732 87.388634 89.001144 C 87.5522 87.852325 87.823936 86.898102 87.87043 85.650986 C 87.88102 85.367706 87.863922 84.956253 87.862953 84.649826 C 87.862717 82.488007 86.285568 80.735245 84.339844 80.735245 Z M 79.928299 108.062103 L 78.881844 126.543213 L 78.806686 126.581024 C 78.736343 128.234299 77.375755 129.554428 75.705139 129.554428 C 75.020752 129.554428 74.38913 129.334732 73.875771 128.959885 L 73.845665 128.974838 L 58.691811 118.232269 C 63.349068 113.652832 69.30645 110.268234 76.171761 108.709625 C 77.412025 108.429611 78.665855 108.21347 79.928299 108.062103 Z M 88.758614 108.062103 C 96.774208 109.047836 104.186836 112.677444 109.867188 118.23999 L 94.81115 128.914597 L 94.758621 128.892197 C 93.422127 129.868073 91.539284 129.625977 90.497643 128.320053 C 90.085922 127.807709 89.848587 127.177246 89.820236 126.520569 L 89.805069 126.513336 Z M 53.196236 125.135651 L 67.03286 137.511719 L 67.017685 137.586884 C 68.266731 138.672607 68.451019 140.556656 67.409142 141.862808 C 66.998466 142.378632 66.43428 142.750366 65.798264 142.924179 L 65.783089 142.984421 L 48.04707 148.10347 C 47.144424 139.849152 49.089909 131.825363 53.196236 125.135651 Z M 115.385406 125.142868 C 117.441216 128.475204 118.997894 132.197067 119.924622 136.231842 C 120.840271 140.218201 121.070084 144.197571 120.692604 148.043259 L 102.866241 142.909256 L 102.851074 142.833847 C 101.25489 142.397827 100.273712 140.773941 100.645416 139.145233 C 100.789978 138.504578 101.135544 137.92691 101.631653 137.496536 L 101.624184 137.458969 L 115.385406 125.143127 Z M 81.501602 138.467606 L 87.17038 138.467606 L 90.693497 142.871674 L 89.42878 148.367004 L 84.339844 150.813568 L 79.235725 148.359543 L 77.971016 142.863968 Z M 99.674362 153.538818 C 99.91526 153.526779 100.154953 153.548447 100.38958 153.591568 L 100.419693 153.553772 L 118.765434 156.655304 C 116.080391 164.198746 110.942787 170.733307 104.078201 175.106537 L 96.95681 157.90506 L 96.979218 157.874969 C 96.32518 156.354904 96.979691 154.572266 98.484818 153.847412 C 98.870255 153.661911 99.272789 153.559052 99.674362 153.538818 Z M 68.862228 153.613983 C 70.262077 153.633743 71.517876 154.60553 71.843323 156.03067 C 71.995575 156.697937 71.921379 157.358719 71.669876 157.942657 L 71.722878 158.010345 L 64.676651 175.038849 C 58.088608 170.81134 52.841393 164.481796 50.034466 156.71553 L 68.222168 153.629166 L 68.252281 153.666748 C 68.455841 153.62941 68.662041 153.611328 68.862228 153.613983 Z M 84.226616 161.074554 C 84.728905 161.057037 85.227821 161.162903 85.67971 161.382904 C 86.296402 161.679932 86.772659 162.147507 87.072334 162.70784 L 87.140266 162.70784 L 96.105965 178.908142 C 94.928986 179.301575 93.73304 179.635788 92.522629 179.909546 C 85.665741 181.466461 78.830536 180.994537 72.641418 178.885727 L 81.584473 162.715546 L 81.59964 162.715546 C 82.121231 161.740204 83.121582 161.115295 84.22686 161.07431 Z"/>
                </g>
            </g>
        </g>
    </g>
</svg>
